<svg width="200" height="200" viewBox="0 0 200 200" fill="none" xmlns="http://www.w3.org/2000/svg">
<g clip-path="url(#clip0_254:5671)">
<path d="M519.5 -291H67.4999C28.4999 -253 67.4999 -251 76.4998 -225C83.6997 -204.2 73.4998 -179.333 67.4999 -169.5C76.4998 -148.5 58.5 -160.5 58.4998 -148.5C58.4984 -81.5 42.9999 -111 24.4999 -81.5C5.99986 -52 21.9999 -29.5 24.4999 -7.5C26.9999 14.5 33.9999 13.5 65.9999 26C97.9999 38.5 86.9999 52 106.5 52C126 52 131 61 142.5 82C154 103 145 117 161 119.5C177 122 171 150.5 171 180.5C171 210.5 150.5 254.5 161 259.5C171.5 264.5 188 266 188 281.5C188 297 171 328 197 342.5C223 357 210 372 224.5 404.5C239 437 218 421.5 210 433C202 444.5 210 470.5 218 485C226 499.5 197 513.5 188 521.5C179 529.5 166 562.5 171 582C176 601.5 198.5 617 197 636.5C195.5 656 201 666.5 210 675.5C219 684.5 207.5 693.5 210 702.5C212.5 711.5 224.5 730 242.5 741.5C260.5 753 243.5 772.5 242.5 789.5C241.7 803.1 230.167 828.833 224.5 840H519.5V-291Z" fill="#56316D"/>
<ellipse cx="74.516" cy="98.426" rx="3.62667" ry="6.50085" transform="rotate(25.1628 74.516 98.426)" fill="#56316D"/>
<path d="M73.4693 28C73.4693 24.5 73.4693 24 70.4693 24C67.4693 24 67.9692 35 68.4692 38.5C68.9692 42 65.4692 42.5 65.4692 46.5C65.4692 50.5 63.4693 63 63.4693 65C63.4693 67 57.9692 73 55.9692 73C54.9523 73 53.5 71 52 69C53 66 51.2373 59.4831 50.5 58.5C47.8 54.9 42.9692 52.5 36.4691 54C29.969 55.5 29.5794 66.6953 31.5 69C32.7631 70.5157 36.4691 76 39 74C41.9658 74.9922 42.2578 76.5209 43 78.5C44.0534 81.309 33.4692 80 32.9692 83C32.4692 86 26.4692 96.5 22.9692 99C19.4692 101.5 4.96914 118.5 2.46914 123.5C-0.0308642 128.5 -1.53086 143 2.46914 140C6.46914 137 5.96914 132 8.46918 130.5C10.9692 129 10.4692 128 12.9692 130.5C15.4692 133 16.4692 129 16.4692 128C16.4692 127 10.4692 125.5 12.9692 121C15.4692 116.5 34.9692 98.5 39.9691 99C44.9691 99.5 48.9692 110 48.9692 114C48.9692 118 37.9691 125 36.4691 135C34.9691 145 48.9692 162.5 46.9691 166C44.9691 169.5 12.9692 172 10.4692 174C7.96918 176 8.46918 193 8.46918 196C8.46918 199 11.4692 198 12.9692 196C14.4692 194 12.9692 191 16.4692 186.5C19.9692 182 28.9692 180 34.9692 178C40.9692 176 47.4692 178.5 48.9692 180C50.4692 181.5 56.4692 186.5 60.9692 186.5C65.4692 186.5 70.4693 181.5 70.4693 176.5C70.4693 171.5 62.4693 140.5 63.4693 135C64.4693 129.5 73.4693 110.5 73.4693 104C73.4693 97.5 70.4693 82.5 70.4693 78.5C70.4693 74.5 71.9693 58 73.4693 54C74.9693 50 73.4693 31.5 73.4693 28Z" fill="#56316D"/>
<path d="M25.9693 155C29.5693 155 35.8026 145.333 38.4693 140.5C41.9693 145.333 48.0692 155.5 44.4692 157.5C39.9692 160 32.9692 167 33.4692 170C33.9692 173 30.4692 175.5 27.9692 178C25.4692 180.5 25.9693 190 21.9692 187.5C17.9692 185 16.4693 186.5 15.9693 181.5C15.4693 176.5 21.4693 155 25.9693 155Z" fill="#56316D"/>
<line x1="72.6442" y1="97.1819" x2="98.6442" y2="39.1819" stroke="#56316D" stroke-width="4"/>
</g>
<defs>
<clipPath id="clip0_254:5671">
<rect width="200" height="200" fill="white"/>
</clipPath>
</defs>
</svg>
